# xmcd
#
# Track frame offsets:
#	150
#	16407
#	29792
#	58275
#	75669
#	92459
#	108789
#	122456
#	143157
#	179410
#	198248
#	217044
#	235835
#	258103
#	270089
#	293066
#	318970
#
# Disc length: 4500 seconds
#
# Revision: 9
# Processed by: cddbd v1.5.2PL0 Copyright (c) Steve Scherf et al.
# Submitted via: EasyCDDAExtractor 10.2.0.1
#
DISCID=e5119211
DTITLE=Eric Clapton - Crossroads CD 4
DYEAR=1988
DGENRE=Blues
TTITLE0=Hello Old Friend
TTITLE1=Sign Language
TTITLE2=Further On Up The Road
TTITLE3=Lay Down Sally
TTITLE4=Wonderful Tonight
TTITLE5=Cocaine
TTITLE6=Promises
TTITLE7=If I Don't Be There By Morning
TTITLE8=Double Trouble
TTITLE9=I Can't Stand It
TTITLE10=The Shape You're In
TTITLE11=Heaven Is One Step Away
TTITLE12=She's Waiting
TTITLE13=Too Bad
TTITLE14=Miss You
TTITLE15=Wanna Make Love To You
TTITLE16=After Midnight
EXTD=
EXTT0=Eric Clapton
EXTT1=Eric Clapton
EXTT2=Eric Clapton
EXTT3=Eric Clapton
EXTT4=Eric Clapton
EXTT5=Eric Clapton
EXTT6=Eric Clapton
EXTT7=Eric Clapton
EXTT8=Eric Clapton
EXTT9=Eric Clapton
EXTT10=Eric Clapton
EXTT11=Eric Clapton
EXTT12=Eric Clapton
EXTT13=Eric Clapton
EXTT14=Eric Clapton
EXTT15=Eric Clapton
EXTT16=Eric Clapton
PLAYORDER=
